<svg xmlns="http://www.w3.org/2000/svg" width="275px" height="52.8px" viewBox="0 0 275 52.8"><defs><style>.cls-1{fill:#8b2332;}.cls-2{fill:#fff;}</style></defs><title>Asset 4</title><g id="Layer_2" data-name="Layer 2"><g id="Layer_1-2" data-name="Layer 1"><rect id="_Path_" data-name="&lt;Path&gt;" class="cls-1" x="11.24" y="47.82" width="5.05" height="0.67"/><polygon id="_Path_2" data-name="&lt;Path&gt;" class="cls-2" points="37.11 52.79 37.11 52.8 37.13 52.8 37.52 52.8 37.52 52.79 37.11 52.79"/><polyline id="_Path_3" data-name="&lt;Path&gt;" class="cls-2" points="51.45 52.8 51.86 52.8 51.86 52.79 51.45 52.79 51.45 52.8"/><path id="_Path_4" data-name="&lt;Path&gt;" class="cls-1" d="M58.73,39.86a1.72,1.72,0,0,0-.24-.37l-.2.18-.2.18h0a1.13,1.13,0,0,1,.25.68c0,.07,0,.69-.58.69a.59.59,0,0,1-.27-.06.53.53,0,0,1-.26-.47v-.27H54.78v.27a.55.55,0,0,1-.26.47.57.57,0,0,1-.28.06.62.62,0,0,1-.57-.64.87.87,0,0,1,.31-.72h0l-.14-.21-.15-.23a1.28,1.28,0,0,0-.38.44h-10a1.71,1.71,0,0,0-.24-.37l-.2.18-.2.18h0a1.14,1.14,0,0,1,.25.68c0,.07,0,.69-.58.69a.59.59,0,0,1-.27-.06.53.53,0,0,1-.26-.47v-.27H39.4v.27a.55.55,0,0,1-.26.47.57.57,0,0,1-.28.06.62.62,0,0,1-.57-.64.87.87,0,0,1,.31-.72h0l-.14-.21-.15-.23a1.28,1.28,0,0,0-.38.44H24a1.72,1.72,0,0,0-.24-.37l-.2.18-.2.18h0a1.13,1.13,0,0,1,.25.68c0,.07,0,.69-.58.69a.59.59,0,0,1-.27-.06.53.53,0,0,1-.26-.47v-.27H20.08v.26a.54.54,0,0,1-.26.47.59.59,0,0,1-.28.06A.62.62,0,0,1,19,40.6a.87.87,0,0,1,.31-.72h0l-.14-.21L19,39.43a1.28,1.28,0,0,0-.38.44H9.09a1.71,1.71,0,0,0-.24-.37l-.2.18-.2.18h0a1.13,1.13,0,0,1,.25.68c0,.07,0,.69-.58.69a.59.59,0,0,1-.27-.06.53.53,0,0,1-.26-.47v-.27H5.13v.27a.55.55,0,0,1-.26.47.57.57,0,0,1-.28.06A.62.62,0,0,1,4,40.6a.87.87,0,0,1,.31-.72h0l-.14-.21L4,39.43a1.28,1.28,0,0,0-.38.44H0V52.79H4.87V41.74A1,1,0,0,0,5.63,41H7.09a1,1,0,0,0,.77.77v11h3.48l0-7.36s.1-2.67,2.44-2.67,2.48,2.67,2.48,2.67v7.35H17c0-.15,0-5.36,0-7.1s-.87-3.48-2.6-3.67v-.38c2.24.24,3,2.3,3,4s0,7,0,7.14h2.44V41.74a1,1,0,0,0,.76-.76H22a1,1,0,0,0,.77.77v11h3.07v-7.9a2.25,2.25,0,0,1,.91-1.71,3.31,3.31,0,0,1,1.77-.68v10.3h1V42.33a8.38,8.38,0,0,1,1.61-.11,6.2,6.2,0,0,1,1.5.11V52.79h1V42.53a3.22,3.22,0,0,1,1.74.68,2.27,2.27,0,0,1,.9,1.71v7.87h.81V44.93a3,3,0,0,0-1-2.15,6.9,6.9,0,0,0-4.53-1.26,3.44,3.44,0,0,1,0-.38c2.83,0,4,.6,5,1.44a3.17,3.17,0,0,1,1,2.32v7.88h1.62V41.74A1,1,0,0,0,39.9,41h1.46a1,1,0,0,0,.77.77v11h3.7l0-7.36s.1-2.67,2.44-2.67,2.48,2.67,2.48,2.67v7.35h.73c0-.15,0-5.36,0-7.1s-.87-3.48-2.6-3.67v-.38c2.24.24,3,2.3,3,4s0,7,0,7.14h2.65V41.74a1,1,0,0,0,.76-.76h1.46a1,1,0,0,0,.77.77v11h4.72V39.86Z"/><rect id="_Path_5" data-name="&lt;Path&gt;" class="cls-1" x="45.73" y="47.82" width="5.05" height="0.67"/><rect id="_Path_6" data-name="&lt;Path&gt;" class="cls-1" x="25.81" y="47.82" width="10.71" height="0.67"/><polygon id="_Path_7" data-name="&lt;Path&gt;" class="cls-1" points="0 0 0 30.98 6.58 30.98 31.13 20.01 55.3 30.98 62.23 30.98 62.23 0 0 0"/><path id="_Compound_Path_" data-name="&lt;Compound Path&gt;" class="cls-1" d="M34.62,31.13c-.39.18-1.4.12-1-.15s.15-.72-.76-.21a3,3,0,0,1-1.39.45.8.8,0,0,0,.11-.41.82.82,0,0,0-.06-.32,1.35,1.35,0,1,0-.82,0,.82.82,0,0,0-.06.32.8.8,0,0,0,.11.41,3,3,0,0,1-1.39-.45c-.91-.51-1.18-.06-.76.21s-.58.33-1,.15,0-.72.88-1.12a.9.9,0,0,1,.93.13,1.86,1.86,0,0,1-.22-.87,1.9,1.9,0,0,1,3.8,0,1.86,1.86,0,0,1-.22.87.9.9,0,0,1,.93-.13c.85.39,1.28.94.88,1.12M9,33.31h44.2L31.14,23.64Zm-4.73.44L31.16,21.89,58.09,33.75Z"/><polygon id="_Path_8" data-name="&lt;Path&gt;" class="cls-1" points="59.06 32.72 60.82 33.44 60.54 33.9 60.54 34.54 59.07 36.18 58.71 36.37 58.61 37.64 62.23 37.64 62.23 32.72 59.06 32.72"/><polygon id="_Path_9" data-name="&lt;Path&gt;" class="cls-1" points="3.16 32.72 1.41 33.44 1.68 33.9 1.68 34.54 3.15 36.18 3.52 36.37 3.61 37.64 0 37.64 0 32.72 3.16 32.72"/><polygon id="_Path_10" data-name="&lt;Path&gt;" class="cls-1" points="58.74 34.47 58.74 35.08 57.43 35.08 57.43 34.47 56.5 34.47 56.5 35.08 55.19 35.08 55.19 34.47 54.26 34.47 54.26 35.08 52.94 35.08 52.94 34.47 52.01 34.47 52.01 35.08 50.7 35.08 50.7 34.47 49.77 34.47 49.77 35.08 48.46 35.08 48.46 34.47 47.53 34.47 47.53 35.08 46.21 35.08 46.21 34.47 45.29 34.47 45.29 35.08 43.97 35.08 43.97 34.47 43.04 34.47 43.04 35.08 41.73 35.08 41.73 34.47 40.8 34.47 40.8 35.08 39.49 35.08 39.49 34.47 38.56 34.47 38.56 35.08 37.24 35.08 37.24 34.47 36.31 34.47 36.31 35.08 35 35.08 35 34.47 34.07 34.47 34.07 35.08 32.76 35.08 32.76 34.47 31.83 34.47 31.83 35.08 30.52 35.08 30.52 34.47 29.59 34.47 29.59 35.08 28.27 35.08 28.27 34.47 27.34 34.47 27.34 35.08 26.03 35.08 26.03 34.47 25.1 34.47 25.1 35.08 23.79 35.08 23.79 34.47 22.86 34.47 22.86 35.08 21.55 35.08 21.55 34.47 20.62 34.47 20.62 35.08 19.3 35.08 19.3 34.47 18.37 34.47 18.37 35.08 17.06 35.08 17.06 34.47 16.13 34.47 16.13 35.08 14.82 35.08 14.82 34.47 13.89 34.47 13.89 35.08 12.57 35.08 12.57 34.47 11.65 34.47 11.65 35.08 10.33 35.08 10.33 34.47 9.4 34.47 9.4 35.08 8.09 35.08 8.09 34.47 7.16 34.47 7.16 35.08 5.85 35.08 5.85 34.47 4.92 34.47 4.92 35.08 3.6 35.08 3.6 34.47 2.39 34.47 3.43 35.83 4.18 36.08 4.24 36.95 58.09 36.95 58.15 35.95 58.78 35.89 60 34.47 58.74 34.47"/><g id="_Group_" data-name="&lt;Group&gt;"><path id="_Compound_Path_2" data-name="&lt;Compound Path&gt;" class="cls-1" d="M81.19,19.77l-.33-1.06H77.6l-.33,1.06H74.17l3.34-9.06H81l3.34,9.06Zm-2-6.37-.9,2.92h1.79Z"/><path id="_Compound_Path_3" data-name="&lt;Compound Path&gt;" class="cls-1" d="M87.49,19.77V10.71h2.74v6.67h3.43v2.39Z"/><path id="_Compound_Path_4" data-name="&lt;Compound Path&gt;" class="cls-1" d="M97.14,19.77V10.71h5.5A2.41,2.41,0,0,1,105.33,13a2,2,0,0,1-1.55,2.08,2.14,2.14,0,0,1,1.72,2.21,2.43,2.43,0,0,1-2.67,2.46Zm5.4-6.26A.52.52,0,0,0,102,13H99.88V14H102A.54.54,0,0,0,102.55,13.51Zm.18,3.41a.59.59,0,0,0-.64-.58h-2.2v1.15h2.2A.57.57,0,0,0,102.72,16.91Z"/><path id="_Compound_Path_5" data-name="&lt;Compound Path&gt;" class="cls-1" d="M115.21,19.77l-.33-1.06h-3.26l-.33,1.06h-3.11l3.34-9.06H115l3.34,9.06Zm-2-6.37-.9,2.92h1.79Z"/><path id="_Compound_Path_6" data-name="&lt;Compound Path&gt;" class="cls-1" d="M127.32,19.77,124,15.18v4.59h-2.74V10.71h2.82L127.21,15V10.71H130v9.06Z"/><path id="_Compound_Path_7" data-name="&lt;Compound Path&gt;" class="cls-1" d="M136.26,19.77v-3.6l-3.39-5.46h3.08l1.68,3.05,1.66-3.05h3.08L139,16.17v3.6Z"/><path id="_Compound_Path_8" data-name="&lt;Compound Path&gt;" class="cls-1" d="M151.26,15.24a4.66,4.66,0,0,1,5-4.68,4.22,4.22,0,0,1,4.11,2.63L158,14.29A1.92,1.92,0,0,0,156.24,13a2.16,2.16,0,0,0-2.2,2.27,2.16,2.16,0,0,0,2.2,2.27A1.92,1.92,0,0,0,158,16.19l2.36,1.09a4.27,4.27,0,0,1-4.11,2.65A4.67,4.67,0,0,1,151.26,15.24Z"/><path id="_Compound_Path_9" data-name="&lt;Compound Path&gt;" class="cls-1" d="M162.78,15.24a5,5,0,1,1,5,4.68A4.67,4.67,0,0,1,162.78,15.24Zm7.13,0a2.17,2.17,0,1,0-4.34,0,2.17,2.17,0,1,0,4.34,0Z"/><path id="_Compound_Path_10" data-name="&lt;Compound Path&gt;" class="cls-1" d="M175.57,19.77V10.71h2.74v6.67h3.43v2.39Z"/><path id="_Compound_Path_11" data-name="&lt;Compound Path&gt;" class="cls-1" d="M185.23,19.77V10.71H188v6.67h3.43v2.39Z"/><path id="_Compound_Path_12" data-name="&lt;Compound Path&gt;" class="cls-1" d="M194.61,19.77V10.71h6.87V13.1h-4.13V14h4v2.39h-4v1h4.13v2.39Z"/><path id="_Compound_Path_13" data-name="&lt;Compound Path&gt;" class="cls-1" d="M204.71,15.24c0-2.91,2.24-4.68,5-4.68a4.22,4.22,0,0,1,4,2.36l-2.31,1.18A1.89,1.89,0,0,0,209.69,13a2.16,2.16,0,0,0-2.2,2.27,2.16,2.16,0,0,0,2.2,2.27,2.67,2.67,0,0,0,1.41-.41v-.33h-1.68V14.39h4.41V18.1a5.38,5.38,0,0,1-4.14,1.83A4.66,4.66,0,0,1,204.71,15.24Z"/><path id="_Compound_Path_14" data-name="&lt;Compound Path&gt;" class="cls-1" d="M217.29,19.77V10.71h6.87V13.1H220V14h4v2.39h-4v1h4.13v2.39Z"/><path id="_Compound_Path_15" data-name="&lt;Compound Path&gt;" class="cls-1" d="M74.66,31.67a5,5,0,1,1,5,4.68A4.67,4.67,0,0,1,74.66,31.67Zm7.13,0a2.17,2.17,0,1,0-2.17,2.27A2.14,2.14,0,0,0,81.79,31.67Z"/><path id="_Compound_Path_16" data-name="&lt;Compound Path&gt;" class="cls-1" d="M88.26,36.19V27.13h6.87v2.39H91v.9h4v2.39H91v3.38Z"/><path id="_Compound_Path_17" data-name="&lt;Compound Path&gt;" class="cls-1" d="M104.92,36.19V27.13h4.83a3.11,3.11,0,1,1,0,6.2h-2.09v2.85Zm5.31-5.95c0-.49-.37-.72-.83-.72h-1.74v1.43h1.74C109.86,30.95,110.23,30.72,110.23,30.24Z"/><path id="_Compound_Path_18" data-name="&lt;Compound Path&gt;" class="cls-1" d="M122.22,36.19V32.73H119v3.46h-2.74V27.13H119v3.2h3.24v-3.2H125v9.06Z"/><path id="_Compound_Path_19" data-name="&lt;Compound Path&gt;" class="cls-1" d="M135.17,36.19l-.33-1.06h-3.26l-.33,1.06h-3.11l3.34-9.06h3.45l3.34,9.06Zm-2-6.37-.9,2.92h1.79Z"/><path id="_Compound_Path_20" data-name="&lt;Compound Path&gt;" class="cls-1" d="M146.45,36.19l-1.25-2.85h-1v2.85h-2.74V27.13h4.83a3,3,0,0,1,3.26,3.11A2.92,2.92,0,0,1,147.93,33l1.64,3.2Zm.33-6c0-.49-.43-.71-.9-.71h-1.67v1.43h1.67C146.34,30.95,146.78,30.73,146.78,30.23Z"/><path id="_Compound_Path_21" data-name="&lt;Compound Path&gt;" class="cls-1" d="M161.14,36.19V30.74l-2,5.44H157.9l-2-5.44v5.44h-2.74V27.13h3.79l1.59,4.34,1.59-4.34h3.79v9.06Z"/><path id="_Compound_Path_22" data-name="&lt;Compound Path&gt;" class="cls-1" d="M173.69,36.19l-.33-1.06h-3.26l-.33,1.06h-3.11L170,27.13h3.45l3.34,9.06Zm-2-6.37-.9,2.92h1.79Z"/><path id="_Compound_Path_23" data-name="&lt;Compound Path&gt;" class="cls-1" d="M178.45,31.67a4.66,4.66,0,0,1,5-4.68,4.22,4.22,0,0,1,4.11,2.63l-2.36,1.1a1.92,1.92,0,0,0-1.75-1.32,2.27,2.27,0,0,0,0,4.53,1.92,1.92,0,0,0,1.75-1.32l2.36,1.09a4.27,4.27,0,0,1-4.11,2.65A4.67,4.67,0,0,1,178.45,31.67Z"/><path id="_Compound_Path_24" data-name="&lt;Compound Path&gt;" class="cls-1" d="M192.88,36.19v-3.6l-3.39-5.46h3.08l1.68,3.05,1.66-3.05H199l-3.37,5.46v3.6Z"/><path id="_Compound_Path_25" data-name="&lt;Compound Path&gt;" class="cls-1" d="M81.19,52.61l-.33-1.06H77.6l-.33,1.06H74.17l3.34-9.06H81l3.34,9.06Zm-2-6.37-.9,2.92h1.79Z"/><path id="_Compound_Path_26" data-name="&lt;Compound Path&gt;" class="cls-1" d="M93.3,52.61,90,48v4.59H87.22V43.56H90l3.15,4.29V43.56h2.74v9.06Z"/><path id="_Compound_Path_27" data-name="&lt;Compound Path&gt;" class="cls-1" d="M99.56,52.61V43.56h4c2.85,0,5,1.63,5,4.52s-2.12,4.53-5,4.53Zm6.23-4.53a2,2,0,0,0-2.17-2.13H102.3v4.28h1.3A2.09,2.09,0,0,0,105.79,48.08Z"/><path id="_Compound_Path_28" data-name="&lt;Compound Path&gt;" class="cls-1" d="M124.4,52.61V49.15h-3.24v3.46h-2.74V43.56h2.74v3.2h3.24v-3.2h2.74v9.06Z"/><path id="_Compound_Path_29" data-name="&lt;Compound Path&gt;" class="cls-1" d="M131,52.61V43.56h6.87v2.39h-4.13v.9h4v2.39h-4v1h4.13v2.39Z"/><path id="_Compound_Path_30" data-name="&lt;Compound Path&gt;" class="cls-1" d="M148.15,52.61l-.33-1.06h-3.26l-.33,1.06h-3.11l3.34-9.06h3.45l3.34,9.06Zm-2-6.37-.9,2.92h1.79Z"/><path id="_Compound_Path_31" data-name="&lt;Compound Path&gt;" class="cls-1" d="M154.45,52.61V43.56h2.74v6.67h3.43v2.39Z"/><path id="_Compound_Path_32" data-name="&lt;Compound Path&gt;" class="cls-1" d="M165.31,52.61V45.95h-2.43V43.56h7.59v2.39h-2.42v6.67Z"/><path id="_Compound_Path_33" data-name="&lt;Compound Path&gt;" class="cls-1" d="M179.86,52.61V49.15h-3.24v3.46h-2.74V43.56h2.74v3.2h3.24v-3.2h2.74v9.06Z"/><path id="_Compound_Path_34" data-name="&lt;Compound Path&gt;" class="cls-1" d="M192.24,51.34l1.43-2a4.22,4.22,0,0,0,2.92,1.17c.52,0,1-.14,1-.49,0-.87-5.05,0-5.05-3.56,0-1.53,1.28-3,3.76-3a6,6,0,0,1,3.84,1.26l-1.47,1.94a4.58,4.58,0,0,0-2.66-.9c-.54,0-.69.18-.69.41,0,.86,5,.12,5,3.49,0,2-1.48,3.15-3.91,3.15A6,6,0,0,1,192.24,51.34Z"/><path id="_Compound_Path_35" data-name="&lt;Compound Path&gt;" class="cls-1" d="M203.2,48.09a4.66,4.66,0,0,1,5-4.68A4.22,4.22,0,0,1,212.3,46l-2.36,1.1a1.92,1.92,0,0,0-1.75-1.32,2.27,2.27,0,0,0,0,4.53A1.92,1.92,0,0,0,209.93,49l2.36,1.09a4.27,4.27,0,0,1-4.11,2.65A4.67,4.67,0,0,1,203.2,48.09Z"/><path id="_Compound_Path_36" data-name="&lt;Compound Path&gt;" class="cls-1" d="M215.58,52.61V43.56h2.74v9.06Z"/><path id="_Compound_Path_37" data-name="&lt;Compound Path&gt;" class="cls-1" d="M222.22,52.61V43.56h6.87v2.39H225v.9h4v2.39h-4v1h4.13v2.39Z"/><path id="_Compound_Path_38" data-name="&lt;Compound Path&gt;" class="cls-1" d="M238.83,52.61,235.49,48v4.59h-2.74V43.56h2.82l3.15,4.29V43.56h2.74v9.06Z"/><path id="_Compound_Path_39" data-name="&lt;Compound Path&gt;" class="cls-1" d="M244.62,48.09a4.66,4.66,0,0,1,5-4.68A4.22,4.22,0,0,1,253.72,46l-2.36,1.1a1.92,1.92,0,0,0-1.75-1.32,2.27,2.27,0,0,0,0,4.53A1.92,1.92,0,0,0,251.35,49l2.36,1.09a4.27,4.27,0,0,1-4.11,2.65A4.67,4.67,0,0,1,244.62,48.09Z"/><path id="_Compound_Path_40" data-name="&lt;Compound Path&gt;" class="cls-1" d="M257,52.61V43.56h6.87v2.39h-4.13v.9h4v2.39h-4v1h4.13v2.39Z"/><path id="_Compound_Path_41" data-name="&lt;Compound Path&gt;" class="cls-1" d="M266.88,51.34l1.43-2a4.22,4.22,0,0,0,2.92,1.17c.52,0,1-.14,1-.49,0-.87-5.05,0-5.05-3.56,0-1.53,1.28-3,3.76-3a6,6,0,0,1,3.84,1.26l-1.47,1.94a4.58,4.58,0,0,0-2.66-.9c-.54,0-.69.18-.69.41,0,.86,5,.12,5,3.49,0,2-1.48,3.15-3.91,3.15A6,6,0,0,1,266.88,51.34Z"/></g></g></g></svg>
